<mxfile host="app.diagrams.net" modified="2020-06-27T20:24:41.244Z" agent="5.0 (Windows)" etag="2exTghR27jbMPZGjo0n2" version="13.3.5" type="github" pages="2">
  <diagram name="Page-1" id="74e2e168-ea6b-b213-b513-2b3c1d86103e">
    <mxGraphModel dx="3964" dy="1194" grid="1" gridSize="10" guides="1" tooltips="1" connect="1" arrows="1" fold="1" page="1" pageScale="1" pageWidth="1100" pageHeight="850" background="#ffffff" math="0" shadow="0">
      <root>
        <mxCell id="0" />
        <mxCell id="1" parent="0" />
        <mxCell id="77e6c97f196da883-1" value="Pool" style="swimlane;html=1;childLayout=stackLayout;startSize=20;rounded=0;shadow=0;labelBackgroundColor=none;strokeWidth=1;fontFamily=Verdana;fontSize=8;align=center;" parent="1" vertex="1">
          <mxGeometry x="70" y="40" width="1140" height="1080" as="geometry" />
        </mxCell>
        <mxCell id="77e6c97f196da883-2" value="技術部PC" style="swimlane;html=1;startSize=20;" parent="77e6c97f196da883-1" vertex="1">
          <mxGeometry y="20" width="350" height="1060" as="geometry" />
        </mxCell>
        <mxCell id="Ugqpc6ZwJGnmmXGpq85y-16" style="edgeStyle=orthogonalEdgeStyle;rounded=0;orthogonalLoop=1;jettySize=auto;html=1;entryX=0.5;entryY=0;entryDx=0;entryDy=0;exitX=0.55;exitY=0.95;exitDx=0;exitDy=0;exitPerimeter=0;" edge="1" parent="77e6c97f196da883-2" source="E8Ld2rmWnYgeLToWw6Kh-31" target="E8Ld2rmWnYgeLToWw6Kh-15">
          <mxGeometry relative="1" as="geometry" />
        </mxCell>
        <mxCell id="Ugqpc6ZwJGnmmXGpq85y-26" value="工程表" style="rounded=1;whiteSpace=wrap;html=1;shadow=0;labelBackgroundColor=none;strokeWidth=1;fontFamily=Verdana;fontSize=8;align=center;fontStyle=1" vertex="1" parent="77e6c97f196da883-2">
          <mxGeometry x="30" y="195" width="100" height="75" as="geometry" />
        </mxCell>
        <mxCell id="77e6c97f196da883-17" value="&lt;div&gt;7品番部品リスト&lt;/div&gt;" style="rounded=1;whiteSpace=wrap;html=1;shadow=0;labelBackgroundColor=none;strokeWidth=1;fontFamily=Verdana;fontSize=8;align=center;" parent="77e6c97f196da883-2" vertex="1">
          <mxGeometry x="30" y="710" width="100" height="80" as="geometry" />
        </mxCell>
        <mxCell id="E8Ld2rmWnYgeLToWw6Kh-31" value="設計" style="ellipse;shape=cloud;whiteSpace=wrap;html=1;" parent="77e6c97f196da883-2" vertex="1">
          <mxGeometry x="10" y="270" width="200" height="130" as="geometry" />
        </mxCell>
        <mxCell id="E8Ld2rmWnYgeLToWw6Kh-15" value="図面" style="rounded=1;whiteSpace=wrap;html=1;shadow=0;labelBackgroundColor=none;strokeWidth=1;fontFamily=Verdana;fontSize=8;align=center;arcSize=0;" parent="77e6c97f196da883-2" vertex="1">
          <mxGeometry x="80" y="600" width="90" height="40" as="geometry" />
        </mxCell>
        <mxCell id="77e6c97f196da883-11" value="受注情報CSV" style="rounded=1;whiteSpace=wrap;html=1;shadow=0;labelBackgroundColor=none;strokeWidth=1;fontFamily=Verdana;fontSize=8;align=center;" parent="77e6c97f196da883-2" vertex="1">
          <mxGeometry x="190" y="65" width="100" height="60" as="geometry" />
        </mxCell>
        <mxCell id="77e6c97f196da883-8" value="&lt;div&gt;仕様書&lt;/div&gt;&lt;div&gt;補助仕様書&lt;br&gt;&lt;/div&gt;" style="rounded=1;whiteSpace=wrap;html=1;shadow=0;labelBackgroundColor=none;strokeWidth=1;fontFamily=Verdana;fontSize=8;align=center;" parent="77e6c97f196da883-2" vertex="1">
          <mxGeometry x="220" y="150" width="100" height="180" as="geometry" />
        </mxCell>
        <mxCell id="77e6c97f196da883-27" style="edgeStyle=orthogonalEdgeStyle;rounded=1;html=1;labelBackgroundColor=none;startArrow=none;startFill=0;startSize=5;endArrow=classicThin;endFill=1;endSize=5;jettySize=auto;orthogonalLoop=1;strokeWidth=1;fontFamily=Verdana;fontSize=8" parent="77e6c97f196da883-1" source="77e6c97f196da883-11" target="77e6c97f196da883-9" edge="1">
          <mxGeometry relative="1" as="geometry">
            <Array as="points">
              <mxPoint x="400" y="115" />
            </Array>
          </mxGeometry>
        </mxCell>
        <mxCell id="E8Ld2rmWnYgeLToWw6Kh-10" value="所定のフォルダに入れ自動取り込み" style="edgeLabel;html=1;align=center;verticalAlign=middle;resizable=0;points=[];" parent="77e6c97f196da883-27" vertex="1" connectable="0">
          <mxGeometry x="-0.1148" y="4" relative="1" as="geometry">
            <mxPoint as="offset" />
          </mxGeometry>
        </mxCell>
        <mxCell id="77e6c97f196da883-4" value="Fullweb" style="swimlane;html=1;startSize=20;" parent="77e6c97f196da883-1" vertex="1">
          <mxGeometry x="350" y="20" width="210" height="1060" as="geometry" />
        </mxCell>
        <mxCell id="77e6c97f196da883-9" value="&lt;div&gt;受注情報アイテム&lt;/div&gt;&lt;div&gt;L2品番、7品番&lt;/div&gt;" style="rounded=1;whiteSpace=wrap;html=1;shadow=0;labelBackgroundColor=none;strokeWidth=1;fontFamily=Verdana;fontSize=8;align=center;" parent="77e6c97f196da883-4" vertex="1">
          <mxGeometry x="40" y="280" width="100" height="620" as="geometry" />
        </mxCell>
        <mxCell id="E8Ld2rmWnYgeLToWw6Kh-24" value="" style="endArrow=classic;html=1;exitX=1;exitY=0.75;exitDx=0;exitDy=0;entryX=-0.044;entryY=0.791;entryDx=0;entryDy=0;entryPerimeter=0;" parent="77e6c97f196da883-1" source="77e6c97f196da883-17" target="77e6c97f196da883-9" edge="1">
          <mxGeometry width="50" height="50" relative="1" as="geometry">
            <mxPoint x="430" y="420" as="sourcePoint" />
            <mxPoint x="480" y="370" as="targetPoint" />
          </mxGeometry>
        </mxCell>
        <mxCell id="E8Ld2rmWnYgeLToWw6Kh-27" value="&lt;div&gt;登録&lt;/div&gt;&lt;div&gt;チェックイン&lt;/div&gt;" style="edgeLabel;html=1;align=center;verticalAlign=middle;resizable=0;points=[];" parent="E8Ld2rmWnYgeLToWw6Kh-24" vertex="1" connectable="0">
          <mxGeometry x="-0.1498" y="3" relative="1" as="geometry">
            <mxPoint x="-23.970000000000002" y="2.8200000000000003" as="offset" />
          </mxGeometry>
        </mxCell>
        <mxCell id="p1iKcBUjnyRXAquPlpA9-4" value="" style="edgeStyle=orthogonalEdgeStyle;rounded=0;orthogonalLoop=1;jettySize=auto;html=1;" parent="77e6c97f196da883-1" source="77e6c97f196da883-9" target="p1iKcBUjnyRXAquPlpA9-3" edge="1">
          <mxGeometry relative="1" as="geometry">
            <Array as="points">
              <mxPoint x="440" y="940" />
            </Array>
          </mxGeometry>
        </mxCell>
        <mxCell id="Ugqpc6ZwJGnmmXGpq85y-49" style="edgeStyle=orthogonalEdgeStyle;rounded=0;orthogonalLoop=1;jettySize=auto;html=1;entryX=0.031;entryY=0.549;entryDx=0;entryDy=0;entryPerimeter=0;" edge="1" parent="77e6c97f196da883-1" source="E8Ld2rmWnYgeLToWw6Kh-15" target="77e6c97f196da883-9">
          <mxGeometry relative="1" as="geometry" />
        </mxCell>
        <mxCell id="Ugqpc6ZwJGnmmXGpq85y-50" value="図面割り当て" style="edgeLabel;html=1;align=center;verticalAlign=middle;resizable=0;points=[];" vertex="1" connectable="0" parent="Ugqpc6ZwJGnmmXGpq85y-49">
          <mxGeometry x="-0.6395" y="1" relative="1" as="geometry">
            <mxPoint x="39.44" y="1.01" as="offset" />
          </mxGeometry>
        </mxCell>
        <mxCell id="77e6c97f196da883-6" value="MC frame" style="swimlane;html=1;startSize=20;" parent="77e6c97f196da883-1" vertex="1">
          <mxGeometry x="560" y="20" width="260" height="1060" as="geometry" />
        </mxCell>
        <mxCell id="p1iKcBUjnyRXAquPlpA9-3" value="生産連携csv" style="rounded=1;whiteSpace=wrap;html=1;shadow=0;labelBackgroundColor=none;strokeWidth=1;fontFamily=Verdana;fontSize=8;align=center;" parent="77e6c97f196da883-6" vertex="1">
          <mxGeometry x="60" y="830" width="100" height="110" as="geometry" />
        </mxCell>
        <mxCell id="Ugqpc6ZwJGnmmXGpq85y-51" value="製造部PC" style="swimlane;html=1;startSize=20;" vertex="1" parent="77e6c97f196da883-1">
          <mxGeometry x="820" y="20" width="260" height="1060" as="geometry" />
        </mxCell>
        <mxCell id="Ugqpc6ZwJGnmmXGpq85y-52" value="生産連携csv" style="rounded=1;whiteSpace=wrap;html=1;shadow=0;labelBackgroundColor=none;strokeWidth=1;fontFamily=Verdana;fontSize=8;align=center;" vertex="1" parent="Ugqpc6ZwJGnmmXGpq85y-51">
          <mxGeometry x="30" y="920" width="100" height="70" as="geometry" />
        </mxCell>
        <mxCell id="Ugqpc6ZwJGnmmXGpq85y-54" style="edgeStyle=orthogonalEdgeStyle;rounded=0;orthogonalLoop=1;jettySize=auto;html=1;entryX=1.004;entryY=0.335;entryDx=0;entryDy=0;entryPerimeter=0;" edge="1" parent="77e6c97f196da883-1" source="77e6c97f196da883-9" target="77e6c97f196da883-17">
          <mxGeometry relative="1" as="geometry">
            <Array as="points">
              <mxPoint x="320" y="757" />
              <mxPoint x="320" y="757" />
            </Array>
          </mxGeometry>
        </mxCell>
        <mxCell id="Ugqpc6ZwJGnmmXGpq85y-55" value="&lt;div&gt;部品リスト作成&lt;/div&gt;&lt;div&gt;自動改定&lt;br&gt;&lt;/div&gt;" style="edgeLabel;html=1;align=center;verticalAlign=middle;resizable=0;points=[];" vertex="1" connectable="0" parent="Ugqpc6ZwJGnmmXGpq85y-54">
          <mxGeometry x="-0.3124" y="-4" relative="1" as="geometry">
            <mxPoint x="-81.04" y="7.02" as="offset" />
          </mxGeometry>
        </mxCell>
        <mxCell id="Ugqpc6ZwJGnmmXGpq85y-56" style="edgeStyle=orthogonalEdgeStyle;rounded=0;orthogonalLoop=1;jettySize=auto;html=1;entryX=-0.037;entryY=0.194;entryDx=0;entryDy=0;entryPerimeter=0;exitX=0.781;exitY=0.848;exitDx=0;exitDy=0;exitPerimeter=0;" edge="1" parent="77e6c97f196da883-1" source="E8Ld2rmWnYgeLToWw6Kh-31" target="77e6c97f196da883-9">
          <mxGeometry relative="1" as="geometry">
            <Array as="points">
              <mxPoint x="166" y="420" />
            </Array>
          </mxGeometry>
        </mxCell>
        <mxCell id="Ugqpc6ZwJGnmmXGpq85y-57" value="&lt;div&gt;構成作成&lt;/div&gt;&lt;div&gt;構成登録&lt;/div&gt;" style="edgeLabel;html=1;align=center;verticalAlign=middle;resizable=0;points=[];" vertex="1" connectable="0" parent="Ugqpc6ZwJGnmmXGpq85y-56">
          <mxGeometry x="-0.2867" relative="1" as="geometry">
            <mxPoint as="offset" />
          </mxGeometry>
        </mxCell>
        <mxCell id="D857qXIC6jP6g0GyQBFi-2" value="技術部資料サーバー" style="swimlane;html=1;startSize=20;" parent="1" vertex="1">
          <mxGeometry x="-510" y="60" width="580" height="1060" as="geometry" />
        </mxCell>
        <mxCell id="D857qXIC6jP6g0GyQBFi-21" value="道具箱質量計算シート&lt;br&gt;質量計算シート&lt;br&gt;タンク容量計算シート&lt;br&gt;" style="rounded=1;whiteSpace=wrap;html=1;shadow=0;labelBackgroundColor=none;strokeWidth=1;fontFamily=Verdana;fontSize=8;align=center;direction=west;" parent="D857qXIC6jP6g0GyQBFi-2" vertex="1">
          <mxGeometry x="160" y="700" width="110" height="110" as="geometry" />
        </mxCell>
        <mxCell id="E8Ld2rmWnYgeLToWw6Kh-28" value="&lt;div&gt;リスト自働作成ツール&lt;/div&gt;&lt;div&gt;ベースリスト&lt;/div&gt;&lt;div&gt;OPリスト&lt;br&gt;&lt;/div&gt;" style="rounded=1;whiteSpace=wrap;html=1;shadow=0;labelBackgroundColor=none;strokeWidth=1;fontFamily=Verdana;fontSize=8;align=center;" parent="D857qXIC6jP6g0GyQBFi-2" vertex="1">
          <mxGeometry x="30" y="470" width="100" height="150" as="geometry" />
        </mxCell>
        <mxCell id="D857qXIC6jP6g0GyQBFi-19" value="図面テンプレート" style="rounded=1;whiteSpace=wrap;html=1;shadow=0;labelBackgroundColor=none;strokeWidth=1;fontFamily=Verdana;fontSize=8;align=center;" parent="D857qXIC6jP6g0GyQBFi-2" vertex="1">
          <mxGeometry x="160" y="570" width="100" height="100" as="geometry" />
        </mxCell>
        <mxCell id="Ugqpc6ZwJGnmmXGpq85y-24" value="衛生T出図工程管理表" style="rounded=1;whiteSpace=wrap;html=1;shadow=0;labelBackgroundColor=none;strokeWidth=1;fontFamily=Verdana;fontSize=8;align=center;" vertex="1" parent="D857qXIC6jP6g0GyQBFi-2">
          <mxGeometry x="20" y="380" width="100" height="70" as="geometry" />
        </mxCell>
        <mxCell id="Ugqpc6ZwJGnmmXGpq85y-29" value="塵芥T出図工程管理表" style="rounded=1;whiteSpace=wrap;html=1;shadow=0;labelBackgroundColor=none;strokeWidth=1;fontFamily=Verdana;fontSize=8;align=center;fontStyle=0" vertex="1" parent="D857qXIC6jP6g0GyQBFi-2">
          <mxGeometry x="130" y="380" width="100" height="70" as="geometry" />
        </mxCell>
        <mxCell id="Ugqpc6ZwJGnmmXGpq85y-37" style="edgeStyle=orthogonalEdgeStyle;rounded=0;orthogonalLoop=1;jettySize=auto;html=1;entryX=0.5;entryY=0;entryDx=0;entryDy=0;" edge="1" parent="D857qXIC6jP6g0GyQBFi-2" source="Ugqpc6ZwJGnmmXGpq85y-32" target="Ugqpc6ZwJGnmmXGpq85y-24">
          <mxGeometry relative="1" as="geometry" />
        </mxCell>
        <mxCell id="Ugqpc6ZwJGnmmXGpq85y-40" value="受注情報&lt;br&gt;&lt;div&gt;出図要求日&lt;/div&gt;" style="edgeLabel;html=1;align=center;verticalAlign=middle;resizable=0;points=[];" vertex="1" connectable="0" parent="Ugqpc6ZwJGnmmXGpq85y-37">
          <mxGeometry x="-0.3752" y="31" relative="1" as="geometry">
            <mxPoint x="-4.29" y="41.43" as="offset" />
          </mxGeometry>
        </mxCell>
        <mxCell id="Ugqpc6ZwJGnmmXGpq85y-38" style="edgeStyle=orthogonalEdgeStyle;rounded=0;orthogonalLoop=1;jettySize=auto;html=1;entryX=0.5;entryY=0;entryDx=0;entryDy=0;" edge="1" parent="D857qXIC6jP6g0GyQBFi-2" source="Ugqpc6ZwJGnmmXGpq85y-32" target="Ugqpc6ZwJGnmmXGpq85y-29">
          <mxGeometry relative="1" as="geometry" />
        </mxCell>
        <mxCell id="Ugqpc6ZwJGnmmXGpq85y-42" value="受注情報&lt;br&gt;&lt;div&gt;出図要求日&lt;/div&gt;" style="edgeLabel;html=1;align=center;verticalAlign=middle;resizable=0;points=[];" vertex="1" connectable="0" parent="Ugqpc6ZwJGnmmXGpq85y-38">
          <mxGeometry x="0.2755" y="1" relative="1" as="geometry">
            <mxPoint x="-1" y="-14.48" as="offset" />
          </mxGeometry>
        </mxCell>
        <mxCell id="Ugqpc6ZwJGnmmXGpq85y-39" style="edgeStyle=orthogonalEdgeStyle;rounded=0;orthogonalLoop=1;jettySize=auto;html=1;entryX=0.5;entryY=0;entryDx=0;entryDy=0;" edge="1" parent="D857qXIC6jP6g0GyQBFi-2" source="Ugqpc6ZwJGnmmXGpq85y-32" target="Ugqpc6ZwJGnmmXGpq85y-35">
          <mxGeometry relative="1" as="geometry" />
        </mxCell>
        <mxCell id="Ugqpc6ZwJGnmmXGpq85y-41" value="受注情報&lt;br&gt;&lt;div&gt;出図要求日&lt;/div&gt;" style="edgeLabel;html=1;align=center;verticalAlign=middle;resizable=0;points=[];" vertex="1" connectable="0" parent="Ugqpc6ZwJGnmmXGpq85y-39">
          <mxGeometry x="0.504" y="3" relative="1" as="geometry">
            <mxPoint y="-1.31" as="offset" />
          </mxGeometry>
        </mxCell>
        <mxCell id="Ugqpc6ZwJGnmmXGpq85y-32" value="受注情報台帳" style="rounded=1;whiteSpace=wrap;html=1;shadow=0;labelBackgroundColor=none;strokeWidth=1;fontFamily=Verdana;fontSize=8;align=center;" vertex="1" parent="D857qXIC6jP6g0GyQBFi-2">
          <mxGeometry x="130" y="230" width="100" height="65" as="geometry" />
        </mxCell>
        <mxCell id="Ugqpc6ZwJGnmmXGpq85y-35" value="特捜T出図工程管理表" style="rounded=1;whiteSpace=wrap;html=1;shadow=0;labelBackgroundColor=none;strokeWidth=1;fontFamily=Verdana;fontSize=8;align=center;fontStyle=0" vertex="1" parent="D857qXIC6jP6g0GyQBFi-2">
          <mxGeometry x="240" y="380" width="100" height="70" as="geometry" />
        </mxCell>
        <mxCell id="Ugqpc6ZwJGnmmXGpq85y-47" value="OP図面" style="rounded=1;whiteSpace=wrap;html=1;shadow=0;labelBackgroundColor=none;strokeWidth=1;fontFamily=Verdana;fontSize=8;align=center;direction=west;" vertex="1" parent="D857qXIC6jP6g0GyQBFi-2">
          <mxGeometry x="160" y="820" width="110" height="110" as="geometry" />
        </mxCell>
        <mxCell id="Ugqpc6ZwJGnmmXGpq85y-58" value="設計基準書" style="rounded=1;whiteSpace=wrap;html=1;shadow=0;labelBackgroundColor=none;strokeWidth=1;fontFamily=Verdana;fontSize=8;align=center;direction=west;" vertex="1" parent="D857qXIC6jP6g0GyQBFi-2">
          <mxGeometry x="160" y="940" width="110" height="110" as="geometry" />
        </mxCell>
        <mxCell id="D857qXIC6jP6g0GyQBFi-7" value="" style="endArrow=classic;html=1;entryX=0.003;entryY=0.367;entryDx=0;entryDy=0;exitX=1;exitY=0.25;exitDx=0;exitDy=0;entryPerimeter=0;" parent="1" source="E8Ld2rmWnYgeLToWw6Kh-28" target="77e6c97f196da883-9" edge="1">
          <mxGeometry width="50" height="50" relative="1" as="geometry">
            <mxPoint x="30" y="534" as="sourcePoint" />
            <mxPoint x="370" y="550" as="targetPoint" />
          </mxGeometry>
        </mxCell>
        <mxCell id="D857qXIC6jP6g0GyQBFi-26" value="" style="edgeStyle=orthogonalEdgeStyle;rounded=0;orthogonalLoop=1;jettySize=auto;html=1;entryX=0;entryY=0.5;entryDx=0;entryDy=0;" parent="1" source="D857qXIC6jP6g0GyQBFi-19" target="E8Ld2rmWnYgeLToWw6Kh-15" edge="1">
          <mxGeometry relative="1" as="geometry">
            <mxPoint x="150" y="670" as="targetPoint" />
            <Array as="points">
              <mxPoint x="50" y="680" />
              <mxPoint x="50" y="680" />
            </Array>
          </mxGeometry>
        </mxCell>
        <mxCell id="D857qXIC6jP6g0GyQBFi-28" value="コピー参照" style="edgeLabel;html=1;align=center;verticalAlign=middle;resizable=0;points=[];" parent="D857qXIC6jP6g0GyQBFi-26" vertex="1" connectable="0">
          <mxGeometry x="-0.74" y="1" relative="1" as="geometry">
            <mxPoint x="114" y="1" as="offset" />
          </mxGeometry>
        </mxCell>
        <mxCell id="D857qXIC6jP6g0GyQBFi-29" style="edgeStyle=orthogonalEdgeStyle;rounded=0;orthogonalLoop=1;jettySize=auto;html=1;entryX=0.13;entryY=0.662;entryDx=0;entryDy=0;entryPerimeter=0;" parent="1" source="D857qXIC6jP6g0GyQBFi-21" edge="1" target="E8Ld2rmWnYgeLToWw6Kh-31">
          <mxGeometry relative="1" as="geometry">
            <mxPoint x="50" y="420" as="targetPoint" />
            <Array as="points">
              <mxPoint x="-20" y="815" />
              <mxPoint x="-20" y="420" />
              <mxPoint x="66" y="420" />
            </Array>
          </mxGeometry>
        </mxCell>
        <mxCell id="77e6c97f196da883-7" value="HIS" style="swimlane;html=1;startSize=20;" parent="1" vertex="1">
          <mxGeometry x="-670" y="60" width="160" height="1060" as="geometry" />
        </mxCell>
        <mxCell id="Ugqpc6ZwJGnmmXGpq85y-2" value="生産計画" style="rounded=1;whiteSpace=wrap;html=1;shadow=0;labelBackgroundColor=none;strokeWidth=1;fontFamily=Verdana;fontSize=8;align=center;" vertex="1" parent="77e6c97f196da883-7">
          <mxGeometry x="40" y="165" width="100" height="150" as="geometry" />
        </mxCell>
        <mxCell id="Ugqpc6ZwJGnmmXGpq85y-3" style="edgeStyle=orthogonalEdgeStyle;rounded=0;orthogonalLoop=1;jettySize=auto;html=1;exitX=0;exitY=0.5;exitDx=0;exitDy=0;entryX=1;entryY=0.25;entryDx=0;entryDy=0;" edge="1" parent="1" source="Ugqpc6ZwJGnmmXGpq85y-26" target="Ugqpc6ZwJGnmmXGpq85y-32">
          <mxGeometry relative="1" as="geometry">
            <mxPoint x="-280" y="340" as="targetPoint" />
            <Array as="points">
              <mxPoint x="100" y="306" />
            </Array>
          </mxGeometry>
        </mxCell>
        <mxCell id="Ugqpc6ZwJGnmmXGpq85y-4" value="&lt;div&gt;受注情報&lt;/div&gt;&lt;div&gt;出図要求日&lt;br&gt;&lt;/div&gt;" style="edgeLabel;html=1;align=center;verticalAlign=middle;resizable=0;points=[];" vertex="1" connectable="0" parent="Ugqpc6ZwJGnmmXGpq85y-3">
          <mxGeometry x="0.2074" y="1" relative="1" as="geometry">
            <mxPoint as="offset" />
          </mxGeometry>
        </mxCell>
        <mxCell id="77e6c97f196da883-26" value="]" style="edgeStyle=orthogonalEdgeStyle;rounded=1;html=1;labelBackgroundColor=none;startArrow=none;startFill=0;startSize=5;endArrow=classicThin;endFill=1;endSize=5;jettySize=auto;orthogonalLoop=1;strokeWidth=1;fontFamily=Verdana;fontSize=8" parent="1" source="Ugqpc6ZwJGnmmXGpq85y-13" target="77e6c97f196da883-11" edge="1">
          <mxGeometry relative="1" as="geometry">
            <Array as="points">
              <mxPoint x="310" y="110" />
            </Array>
          </mxGeometry>
        </mxCell>
        <mxCell id="Ugqpc6ZwJGnmmXGpq85y-15" value="CSV手動出力" style="edgeLabel;html=1;align=center;verticalAlign=middle;resizable=0;points=[];" vertex="1" connectable="0" parent="77e6c97f196da883-26">
          <mxGeometry x="0.1101" y="1" relative="1" as="geometry">
            <mxPoint as="offset" />
          </mxGeometry>
        </mxCell>
        <mxCell id="Ugqpc6ZwJGnmmXGpq85y-20" value="Salesforce" style="swimlane;html=1;startSize=20;" vertex="1" parent="1">
          <mxGeometry x="-1310" y="60" width="320" height="1060" as="geometry" />
        </mxCell>
        <mxCell id="Ugqpc6ZwJGnmmXGpq85y-13" value="受注情報" style="rounded=1;whiteSpace=wrap;html=1;shadow=0;labelBackgroundColor=none;strokeWidth=1;fontFamily=Verdana;fontSize=8;align=center;" vertex="1" parent="Ugqpc6ZwJGnmmXGpq85y-20">
          <mxGeometry x="120" y="30" width="100" height="70" as="geometry" />
        </mxCell>
        <mxCell id="77e6c97f196da883-3" value="営業推進部・PC" style="swimlane;html=1;startSize=20;" parent="1" vertex="1">
          <mxGeometry x="-990" y="60" width="320" height="1060" as="geometry" />
        </mxCell>
        <mxCell id="Ugqpc6ZwJGnmmXGpq85y-21" value="&lt;div&gt;仕様書&lt;/div&gt;&lt;div&gt;補助仕様書&lt;br&gt;&lt;/div&gt;" style="rounded=1;whiteSpace=wrap;html=1;shadow=0;labelBackgroundColor=none;strokeWidth=1;fontFamily=Verdana;fontSize=8;align=center;" vertex="1" parent="77e6c97f196da883-3">
          <mxGeometry x="50" y="100" width="100" height="70" as="geometry" />
        </mxCell>
        <mxCell id="Ugqpc6ZwJGnmmXGpq85y-22" style="edgeStyle=orthogonalEdgeStyle;rounded=0;orthogonalLoop=1;jettySize=auto;html=1;entryX=0.25;entryY=0;entryDx=0;entryDy=0;" edge="1" parent="1" source="Ugqpc6ZwJGnmmXGpq85y-21" target="77e6c97f196da883-8">
          <mxGeometry relative="1" as="geometry">
            <Array as="points">
              <mxPoint x="315" y="190" />
            </Array>
          </mxGeometry>
        </mxCell>
        <mxCell id="Ugqpc6ZwJGnmmXGpq85y-23" value="手動印刷" style="edgeLabel;html=1;align=center;verticalAlign=middle;resizable=0;points=[];" vertex="1" connectable="0" parent="Ugqpc6ZwJGnmmXGpq85y-22">
          <mxGeometry x="-0.229" y="6" relative="1" as="geometry">
            <mxPoint x="98" y="1" as="offset" />
          </mxGeometry>
        </mxCell>
        <mxCell id="Ugqpc6ZwJGnmmXGpq85y-53" style="edgeStyle=orthogonalEdgeStyle;rounded=0;orthogonalLoop=1;jettySize=auto;html=1;" edge="1" parent="1" source="p1iKcBUjnyRXAquPlpA9-5" target="Ugqpc6ZwJGnmmXGpq85y-52">
          <mxGeometry relative="1" as="geometry" />
        </mxCell>
        <mxCell id="p1iKcBUjnyRXAquPlpA9-5" value="発送済み仕様書&lt;br&gt;" style="rounded=1;whiteSpace=wrap;html=1;shadow=0;labelBackgroundColor=none;strokeWidth=1;fontFamily=Verdana;fontSize=8;align=center;arcSize=26;" parent="1" vertex="1">
          <mxGeometry x="285" y="980" width="110" height="70" as="geometry" />
        </mxCell>
        <mxCell id="Ugqpc6ZwJGnmmXGpq85y-30" style="edgeStyle=orthogonalEdgeStyle;rounded=0;orthogonalLoop=1;jettySize=auto;html=1;entryX=0.5;entryY=0;entryDx=0;entryDy=0;" edge="1" parent="1" source="77e6c97f196da883-8" target="p1iKcBUjnyRXAquPlpA9-5">
          <mxGeometry relative="1" as="geometry" />
        </mxCell>
        <mxCell id="Ugqpc6ZwJGnmmXGpq85y-31" value="&lt;div&gt;トレー投函&lt;/div&gt;&lt;div&gt;手動スキャナPDF化&lt;br&gt;&lt;/div&gt;" style="edgeLabel;html=1;align=center;verticalAlign=middle;resizable=0;points=[];" vertex="1" connectable="0" parent="Ugqpc6ZwJGnmmXGpq85y-30">
          <mxGeometry x="-0.2625" y="4" relative="1" as="geometry">
            <mxPoint x="-4" y="312" as="offset" />
          </mxGeometry>
        </mxCell>
        <mxCell id="Ugqpc6ZwJGnmmXGpq85y-36" style="edgeStyle=orthogonalEdgeStyle;rounded=0;orthogonalLoop=1;jettySize=auto;html=1;entryX=0;entryY=0.25;entryDx=0;entryDy=0;" edge="1" parent="1" source="Ugqpc6ZwJGnmmXGpq85y-2" target="Ugqpc6ZwJGnmmXGpq85y-26">
          <mxGeometry relative="1" as="geometry">
            <Array as="points">
              <mxPoint x="-360" y="274" />
              <mxPoint x="-360" y="274" />
            </Array>
          </mxGeometry>
        </mxCell>
        <mxCell id="Ugqpc6ZwJGnmmXGpq85y-45" style="edgeStyle=orthogonalEdgeStyle;rounded=0;orthogonalLoop=1;jettySize=auto;html=1;entryX=0.07;entryY=0.4;entryDx=0;entryDy=0;entryPerimeter=0;" edge="1" parent="1" source="Ugqpc6ZwJGnmmXGpq85y-35" target="E8Ld2rmWnYgeLToWw6Kh-31">
          <mxGeometry relative="1" as="geometry" />
        </mxCell>
        <mxCell id="Ugqpc6ZwJGnmmXGpq85y-46" value="&lt;div&gt;受注情報&lt;/div&gt;&lt;div&gt;出図要求日&lt;br&gt;&lt;/div&gt;" style="edgeLabel;html=1;align=center;verticalAlign=middle;resizable=0;points=[];" vertex="1" connectable="0" parent="Ugqpc6ZwJGnmmXGpq85y-45">
          <mxGeometry x="-0.3627" y="19" relative="1" as="geometry">
            <mxPoint as="offset" />
          </mxGeometry>
        </mxCell>
        <mxCell id="Ugqpc6ZwJGnmmXGpq85y-48" style="edgeStyle=orthogonalEdgeStyle;rounded=0;orthogonalLoop=1;jettySize=auto;html=1;entryX=0;entryY=0.75;entryDx=0;entryDy=0;" edge="1" parent="1" source="Ugqpc6ZwJGnmmXGpq85y-47" target="E8Ld2rmWnYgeLToWw6Kh-15">
          <mxGeometry relative="1" as="geometry">
            <Array as="points">
              <mxPoint x="20" y="935" />
              <mxPoint x="20" y="690" />
            </Array>
          </mxGeometry>
        </mxCell>
        <mxCell id="Ugqpc6ZwJGnmmXGpq85y-59" style="edgeStyle=orthogonalEdgeStyle;rounded=0;orthogonalLoop=1;jettySize=auto;html=1;entryX=0.201;entryY=0.837;entryDx=0;entryDy=0;entryPerimeter=0;" edge="1" parent="1" source="Ugqpc6ZwJGnmmXGpq85y-58" target="E8Ld2rmWnYgeLToWw6Kh-31">
          <mxGeometry relative="1" as="geometry">
            <Array as="points">
              <mxPoint x="40" y="1055" />
              <mxPoint x="40" y="439" />
            </Array>
          </mxGeometry>
        </mxCell>
      </root>
    </mxGraphModel>
  </diagram>
  <diagram id="W3ZEdUbSjzD64EZ-ZzmH" name="Page-2">
    
    <mxGraphModel dx="380" dy="503" grid="1" gridSize="10" guides="1" tooltips="1" connect="1" arrows="1" fold="1" page="1" pageScale="1" pageWidth="827" pageHeight="1169" math="0" shadow="0">
      
      <root>
        
        <mxCell id="WbjMgv4M7i0UafWP87rY-0" />
        
        <mxCell id="WbjMgv4M7i0UafWP87rY-1" parent="WbjMgv4M7i0UafWP87rY-0" />
        
      </root>
      
    </mxGraphModel>
    
  </diagram>
</mxfile>
